<svg xmlns="http://www.w3.org/2000/svg" xml:space="preserve" id="businessman-giving-presentation" x="0" y="0" enable-background="new 0 0 300 225" version="1.1" viewBox="0 0 300 225">
  <g>
    <path fill="#ff7f6e" d="M151.74,109.57l-42.81,27.52c-8.93,5.74-20.82,3.15-26.56-5.78l0,0c-5.74-8.93-3.15-20.82,5.78-26.56
		l42.81-27.52L151.74,109.57z"></path>
    <path fill="none" stroke="#000" stroke-miterlimit="10" stroke-width=".316" d="M267.58,90.87c21.72,17.96,22.15,53.62,0.78,72.08c-19.89,17.19-51.28,38-88.96,40.92
		c-65.62,5.07-127.32-16.29-127.32-16.29s-41.97-22.42-35.53-67.27s-1.89-91.29,27-98.29c21.45-5.2,33.61,1.51,37.36,22.4
		c2.94,16.44,24.75,20.65,34.38,15.08s8.12-39,38.42-36.04c24.5,2.39,30.04,22.6,28.78,34.51c-1.25,11.9,2.03,31.35,15.24,35.18
		c13.21,3.83,54.86-14.69,69.42-2.65C267.29,90.63,267.43,90.75,267.58,90.87z"></path>
    <path fill="#ff7f6e" d="M72.98,85.48c9.68,1.54,13.24,4.7,18.79,10.26c2.1,2.1,4.44,4.14,5.08,7.24
		c2.66,12.93,14.67,36.26,12.61,84.71c-0.12,2.92-2.2,5.25-4.87,5.47c-9.15,0.75-30.59,2.63-50.62-0.28
		c-15.4-2.24-27.74-15.52-29.85-32.35c-4.2-33.52,4.58-51.42,4.58-51.42S36.01,79.58,72.98,85.48z"></path>
    <path fill="#fff" stroke="#000" stroke-miterlimit="10" stroke-width=".316" d="M178.12 122.44H95.29c-1.94 0-3.51-1.57-3.51-3.51V65.58c0-1.94 1.57-3.51 3.51-3.51h82.83c1.94 0 3.51 1.57 3.51 3.51v53.34C181.64 120.87 180.06 122.44 178.12 122.44zM271.41 122.44h-78.24c-1.89 0-3.42-1.53-3.42-3.42V65.49c0-1.89 1.53-3.42 3.42-3.42h78.24c1.89 0 3.42 1.53 3.42 3.42v53.53C274.83 120.91 273.3 122.44 271.41 122.44zM211.57 201.44H135.7c-2.55 0-4.61-2.06-4.61-4.61v-64.34c0-2.55 2.06-4.61 4.61-4.61h75.87c2.55 0 4.61 2.06 4.61 4.61v64.34C216.18 199.38 214.11 201.44 211.57 201.44z"></path>
    <polyline fill="none" stroke="#000" stroke-miterlimit="10" stroke-width=".316" points="101.99 72.32 101.99 116.72 155.66 116.72"></polyline>
    <rect width="3.23" height="7.62" x="106.41" y="104.88"></rect>
    <rect width="3.23" height="12.11" x="112.95" y="100.39"></rect>
    <rect width="3.23" height="22.32" x="119.49" y="90.18"></rect>
    <rect width="3.23" height="15.73" x="126.03" y="96.77"></rect>
    <rect width="3.23" height="34.66" x="132.56" y="77.84"></rect>
    <rect width="3.23" height="26.29" x="139.1" y="86.21"></rect>
    <rect width="3.23" height="11.65" x="145.64" y="100.85"></rect>
    <rect width="3.23" height="4.65" x="152.18" y="107.85"></rect>
    <line x1="157.4" x2="175.55" y1="89" y2="89" fill="none" stroke="#000" stroke-miterlimit="10" stroke-width=".316"></line>
    <line x1="157.4" x2="175.55" y1="83.96" y2="83.96" fill="none" stroke="#000" stroke-miterlimit="10" stroke-width=".316"></line>
    <line x1="157.4" x2="175.55" y1="78.93" y2="78.93" fill="none" stroke="#000" stroke-miterlimit="10" stroke-width=".316"></line>
    <path d="M174.67,68.48h-16.38c-0.49,0-0.89,0.4-0.89,0.89v5.23c0,0.49,0.4,0.89,0.89,0.89h16.38c0.49,0,0.89-0.4,0.89-0.89v-5.23
		C175.55,68.87,175.16,68.48,174.67,68.48z"></path>
    <g>
      <path d="M252.89,91.39c0,1.64-0.2,3.24-0.58,4.77l-19.16-4.77V71.65C244.05,71.65,252.89,80.48,252.89,91.39z"></path>
      <path fill="#fff" stroke="#000" stroke-miterlimit="10" stroke-width=".316" d="M251.27,97.89c-2.13,8.6-9.9,14.97-19.16,14.97c-9.26,0-17.03-6.37-19.16-14.97l19.16-4.77L251.27,97.89z"></path>
      <path fill="#ff7f6e" d="M231.42,71.65v19.74l-19.16,4.77c-0.38-1.53-0.58-3.12-0.58-4.77C211.68,80.48,220.52,71.65,231.42,71.65z"></path>
    </g>
    <g>
      <path d="M172.69,138.26v11.42c-4.65,0.29-8.72,2.69-11.27,6.26l-9.91-5.72v0C156.06,143.25,163.82,138.57,172.69,138.26z"></path>
      <path fill="#fff" stroke="#000" stroke-miterlimit="10" stroke-width=".316" d="M172.69,179.64v11.42c-14.15-0.5-25.48-12.13-25.48-26.41c0-4.65,1.2-9.02,3.31-12.82l9.89,5.71
			c-1.14,2.12-1.79,4.54-1.79,7.11C158.62,172.64,164.84,179.16,172.69,179.64z"></path>
      <path d="M196.29,178.27c-4.47,7.43-12.49,12.47-21.71,12.8v-11.42c5-0.31,9.33-3.06,11.82-7.08L196.29,178.27z"></path>
      <path fill="#ff7f6e" d="M200.06,164.66c0,4.3-1.03,8.36-2.85,11.95l-9.91-5.72c0.86-1.9,1.35-4.01,1.35-6.22
			c0-7.97-6.22-14.49-14.06-14.98v-11.42C188.74,138.75,200.06,150.39,200.06,164.66z"></path>
    </g>
    <g>
      <path fill="#080717" d="M51.08,89.26L37.08,79.18c-3.14-2.26-5-5.89-5-9.75c0.01-5.28,1.5-12.35,8.04-16.86
			c9.63-6.63,18.34-2.74,18.34-2.74s3.52,0.99,7.07-2.01c0,0,5.16,11.73-7.3,16.69c0,0-8.19,1.07-6.55,9.97
			C53.31,83.39,51.08,89.26,51.08,89.26z"></path>
      <path fill="#fff" stroke="#000" stroke-linecap="round" stroke-linejoin="round" stroke-miterlimit="10" stroke-width=".316" d="M64.44,90.35l-1.01-8.99l-0.45-3.85l-0.41-3.47l-16.98-1.93l1.87,15.18c0,0-1.17,0.45-2.4,1.68
			C45.07,88.97,60.35,101.71,64.44,90.35z"></path>
      <path fill="#fff" stroke="#000" stroke-linecap="round" stroke-linejoin="round" stroke-miterlimit="10" stroke-width=".316" d="M45.93,73.84c3.43,7.13,12.46,11.19,16.78,8.29c6.19-4.16,4.41-9.38,2.27-17
			c-2.95-10.53-10.02-11.08-14.7-8.82S42.49,66.71,45.93,73.84z"></path>
      <path fill="#080717" d="M63.47,61.19c0,0-2.68,3.47-10.84,4.66s-5.15,11.89-5.15,11.89s-8.59,0.54-8.69,0.14
			c-0.1-0.4-3.55-13.68-3.55-13.68l11.94-11.87l13.91-0.32L63.47,61.19z"></path>
      <g>
        <ellipse cx="46.41" cy="73.63" fill="#fff" rx="4.47" ry="5.6" transform="rotate(-14.53 46.422 73.64)"></ellipse>
        <g>
          <path d="M45.31,76.94c0.17-0.04,0.29-0.19,0.29-0.37c0.01-0.52,0.16-0.9,0.46-1.16c0.59-0.51,1.57-0.38,1.58-0.38
					c0.13,0.02,0.26-0.03,0.35-0.14c0.09-0.1,0.12-0.24,0.08-0.37c-0.93-3.07-3.63-3.34-3.74-3.35c-0.22-0.02-0.41,0.14-0.43,0.36
					c-0.02,0.22,0.14,0.41,0.36,0.43c0.09,0.01,1.98,0.22,2.87,2.28c-0.46,0.03-1.09,0.16-1.58,0.58c-0.48,0.41-0.72,1-0.74,1.75
					c0,0.22,0.17,0.4,0.39,0.4C45.24,76.95,45.27,76.95,45.31,76.94z"></path>
        </g>
      </g>
    </g>
    <path fill="#ff7f6e" d="M38.92,111.03l-12.66,34.2c-6.86,18.54,3.04,39.07,21.82,45.25l0,0l30.79-76.13L38.92,111.03z"></path>
    <g>
      <path fill="#fff" stroke="#000" stroke-linecap="round" stroke-linejoin="round" stroke-miterlimit="10" stroke-width=".316" d="M114.66,51.65L114.66,51.65c2.95-0.18,5.48,2.06,5.66,5.01l0.75,12.23c0.18,2.95-2.06,5.48-5.01,5.66h0
			c-2.95,0.18-5.48-2.06-5.66-5.01l-0.75-12.23C109.47,54.37,111.72,51.83,114.66,51.65z"></path>
      <path fill="#fff" stroke="#000" stroke-linecap="round" stroke-linejoin="round" stroke-miterlimit="10" stroke-width=".316" d="M125.58 50.69 125.58 50.69c3.1-.19 5.76 2.17 5.95 5.26l.79 12.86c.19 3.1-2.17 5.76-5.26 5.95h0c-3.1.19-5.76-2.17-5.95-5.26l-.79-12.86C120.12 53.54 122.48 50.88 125.58 50.69zM136.31 50.68 136.31 50.68c2.8-.17 5.2 1.96 5.37 4.75l.71 11.61c.17 2.8-1.96 5.2-4.75 5.37h0c-2.8.17-5.2-1.96-5.37-4.75l-.71-11.61C131.38 53.25 133.51 50.85 136.31 50.68z"></path>
      <path fill="#fff" stroke="#000" stroke-linecap="round" stroke-linejoin="round" stroke-miterlimit="10" stroke-width=".316" d="M146.21,49.37L146.21,49.37c2.7-0.17,5.02,1.89,5.18,4.59l0.69,11.2c0.17,2.7-1.89,5.02-4.59,5.18h0
			c-2.7,0.17-5.02-1.89-5.18-4.59l-0.69-11.2C141.46,51.86,143.51,49.54,146.21,49.37z"></path>
    </g>
    <g>
      <path fill="#fff" stroke="#000" stroke-linecap="round" stroke-linejoin="round" stroke-miterlimit="10" stroke-width=".316" d="M154.58,114.96c-1.54-1.97-4.3-2.52-6.48-1.28l-20.82,11.8l-1.49-1.72c-1.12-1.29-3.59-2.02-5.27-1.7
			c-2.27,0.43-5.48,1.72-8.43,5.38c-3.68,4.56-12.13,8.77-16.75,11.67l-49.45,20.1l11.92,29.6l51.49-20.6l0,0
			c2.47-0.2,4.8-0.56,6.28-1.2c4.61-2,18.44-5.75,18.44-5.75c6.63-0.52,8.3-2.89,8.3-2.89c3.66-4.39-0.65-6.72-0.65-6.72
			s2.82-1.16,2.98-5.22c0.16-4.06-4.03-4.84-4.03-4.84c3.64-2.14,2.94-5.1,2.94-5.1c-0.36-5.33-4.7-4.95-4.7-4.95l14.43-9.2
			C155.83,120.74,156.42,117.31,154.58,114.96z"></path>
      <g>
        <line x1="138.89" x2="132.43" y1="131.54" y2="134.63" fill="#fff"></line>
        <path d="M132.43,134.81c-0.07,0-0.13-0.04-0.16-0.1c-0.04-0.09-0.01-0.2,0.08-0.24l6.46-3.1c0.09-0.04,0.2-0.01,0.24,0.08
				c0.04,0.09,0.01,0.2-0.08,0.24l-6.46,3.1C132.48,134.81,132.45,134.81,132.43,134.81z"></path>
      </g>
      <g>
        <line x1="140.65" x2="133.73" y1="141.58" y2="144.41" fill="#fff"></line>
        <path d="M133.74,144.58c-0.07,0-0.14-0.04-0.17-0.11c-0.04-0.09,0.01-0.2,0.1-0.23l6.91-2.82c0.09-0.04,0.2,0.01,0.23,0.1
				c0.04,0.09-0.01,0.2-0.1,0.23l-6.91,2.82C133.78,144.58,133.76,144.58,133.74,144.58z"></path>
      </g>
      <g>
        <line x1="141.69" x2="132.53" y1="151.64" y2="154.31" fill="#fff"></line>
        <path d="M132.53,154.49c-0.08,0-0.15-0.05-0.17-0.13c-0.03-0.09,0.03-0.19,0.12-0.22l9.16-2.67c0.1-0.03,0.19,0.03,0.22,0.12
				c0.03,0.09-0.03,0.19-0.12,0.22l-9.16,2.67C132.56,154.49,132.55,154.49,132.53,154.49z"></path>
      </g>
    </g>
    <line x1="57" x2="61.51" y1="151.62" y2="130.27" fill="none" stroke="#000" stroke-linecap="round" stroke-linejoin="round" stroke-miterlimit="10" stroke-width=".316"></line>
    <path fill="#ff7f6e" d="M110.01,171.27l-47.02,19.47c-9.81,4.06-21.05-0.6-25.11-10.4l0,0c-4.06-9.81,0.6-21.05,10.4-25.11
		l47.02-19.47L110.01,171.27z"></path>
    <polyline fill="none" stroke="#000" stroke-linecap="round" stroke-linejoin="round" stroke-miterlimit="10" stroke-width=".316" points="49.85 154.58 95.3 135.75 110.01 171.27 62.99 190.74"></polyline>
  </g>
</svg>
